# xmcd CD database file
#
# Track frame offsets:
#	150
#	21862
#	37500
#
# Disc length: 772 seconds
#
# Revision: 6
# Processed by: cddbd v1.5.2PL0 Copyright (c) Steve Scherf et al.
# Submitted via: CDex 1.51
#
DISCID=13030203
DTITLE=田村ゆかり - Tomorrow
DYEAR=2008
DGENRE=seiyu
TTITLE0=Tomorrow
TTITLE1=恋のタイムマシン
TTITLE2=Don't wake me☆Up
EXTD=YEAR: 2008
EXTT0=
EXTT1=
EXTT2=
PLAYORDER=
